<svg width="182" height="51" viewBox="0 0 182 51" fill="none" xmlns="http://www.w3.org/2000/svg">
<path d="M14.2995 24.1541C14.2995 23.2389 13.9763 22.5389 13.3301 22.0543C12.6838 21.5589 11.5204 21.042 9.84001 20.5036C8.15961 19.9545 6.82929 19.4159 5.84907 18.8883C3.17767 17.4453 1.84197 15.5016 1.84197 13.0571C1.84197 11.7864 2.19743 10.6557 2.90838 9.66503C3.63007 8.66356 4.65879 7.88283 5.99449 7.32287C7.34096 6.7629 8.84901 6.48291 10.5186 6.48291C12.199 6.48291 13.6963 6.78982 15.0104 7.40363C16.3246 8.00667 17.3425 8.86278 18.0643 9.97194C18.7967 11.0811 19.1629 12.341 19.1629 13.7517H14.3157C14.3157 12.6748 13.9763 11.8403 13.2977 11.248C12.6191 10.645 11.6658 10.3435 10.4378 10.3435C9.25295 10.3435 8.33196 10.5965 7.67489 11.1026C7.0178 11.598 6.68926 12.2549 6.68926 13.0733C6.68926 13.8379 7.07167 14.4786 7.83645 14.9955C8.61202 15.5124 9.74845 15.997 11.2457 16.4492C14.0032 17.2785 16.0123 18.3067 17.2725 19.5345C18.5328 20.7621 19.1629 22.2912 19.1629 24.1219C19.1629 26.1572 18.3927 27.7562 16.8525 28.9193C15.3121 30.0715 13.2385 30.6476 10.6317 30.6476C8.82208 30.6476 7.17399 30.3192 5.68749 29.6622C4.20099 28.9947 3.06457 28.0847 2.27821 26.9325C1.50265 25.7802 1.11487 24.4449 1.11487 22.9265H5.97833C5.97833 25.5217 7.52947 26.8193 10.6317 26.8193C11.7843 26.8193 12.6838 26.5879 13.3301 26.1248C13.9763 25.651 14.2995 24.9941 14.2995 24.1541ZM60.268 26.4317H70.5606V30.3246H55.4208V6.80597H60.268V26.4317ZM86.9605 25.4787H78.4616L76.8459 30.3246H71.6916L80.4491 6.80597H84.9409L93.7468 30.3246H88.5925L86.9605 25.4787ZM79.7704 21.5535H85.6518L82.695 12.7502L79.7704 21.5535ZM104.653 21.7151H100.792V30.3246H95.9442V6.80597H104.686C107.465 6.80597 109.608 7.42517 111.116 8.66356C112.624 9.90194 113.378 11.6518 113.378 13.9133C113.378 15.5177 113.028 16.8585 112.328 17.9353C111.639 19.0015 110.588 19.8521 109.177 20.4875L114.267 30.0984V30.3246H109.064L104.653 21.7151ZM100.792 17.7899H104.702C105.919 17.7899 106.861 17.483 107.529 16.8692C108.197 16.2447 108.531 15.3886 108.531 14.3009C108.531 13.1917 108.213 12.3195 107.578 11.6841C106.953 11.0488 105.989 10.7311 104.686 10.7311H100.792V17.7899ZM139.473 20.1321H130.166V26.4317H141.089V30.3246H125.319V6.80597H141.057V10.7311H130.166V16.3362H139.473V20.1321ZM152.351 14.9147L156.761 6.80597H162.336L155.486 18.4683L162.514 30.3246H156.874L152.351 22.0865L147.827 30.3246H142.187L149.217 18.4683L142.365 6.80597H147.94L152.351 14.9147ZM179.124 20.1321H169.817V26.4317H180.74V30.3246H164.969V6.80597H180.707V10.7311H169.817V16.3362H179.124V20.1321Z" fill="white"/>
<path d="M37.2259 10.1855C31.7219 10.1855 27.2439 14.6622 27.2439 20.1645C27.2439 25.667 31.7219 30.1437 37.2259 30.1437C42.73 30.1437 47.2079 25.6671 47.2079 20.1645C47.2079 14.6622 42.73 10.1855 37.2259 10.1855ZM37.2259 28.3867C32.6908 28.3867 29.0014 24.6983 29.0014 20.1645C29.0014 15.631 32.6908 11.9425 37.2259 11.9425C41.7609 11.9425 45.4502 15.631 45.4502 20.1645C45.4502 24.6981 41.7609 28.3867 37.2259 28.3867Z" fill="white"/>
<path d="M37.2261 3.62549C36.7407 3.62549 36.3473 4.01879 36.3473 4.50404V7.9632C36.3473 8.44854 36.7408 8.84185 37.2261 8.84185C37.7116 8.84185 38.105 8.44854 38.105 7.9633V4.50404C38.105 4.01889 37.7116 3.62549 37.2261 3.62549Z" fill="white"/>
<path d="M48.9247 8.46976C48.5814 8.12662 48.025 8.12662 47.6817 8.46976L45.2349 10.9159C44.8917 11.259 44.8917 11.8152 45.2349 12.1582C45.4064 12.3298 45.6313 12.4156 45.8563 12.4156C46.0812 12.4156 46.3061 12.3298 46.4778 12.1582L48.9246 9.71208C49.2679 9.36904 49.2679 8.81281 48.9247 8.46976Z" fill="white"/>
<path d="M29.2173 28.1713C28.874 27.8284 28.3177 27.8282 27.9743 28.1713L25.5274 30.6174C25.1841 30.9606 25.1841 31.5168 25.5273 31.86C25.6991 32.0316 25.9238 32.1173 26.1488 32.1173C26.3737 32.1173 26.5986 32.0316 26.7701 31.86L29.217 29.4138C29.5604 29.0707 29.5604 28.5144 29.2173 28.1713Z" fill="white"/>
<path d="M52.8917 19.2861H49.4312C48.946 19.2861 48.5525 19.6794 48.5525 20.1647C48.5525 20.6498 48.9457 21.0433 49.4312 21.0433H52.8917C53.3771 21.0433 53.7705 20.6499 53.7705 20.1647C53.7704 19.6794 53.377 19.2861 52.8917 19.2861Z" fill="white"/>
<path d="M25.0208 19.2861H21.5606C21.0751 19.2861 20.6818 19.6794 20.6818 20.1647C20.6818 20.6498 21.0751 21.0433 21.5606 21.0433H25.0208C25.5064 21.0433 25.8997 20.6499 25.8997 20.1647C25.8997 19.6794 25.5064 19.2861 25.0208 19.2861Z" fill="white"/>
<path d="M29.2174 10.9157L26.7704 8.46969C26.4274 8.12654 25.8709 8.12674 25.5277 8.46969C25.1844 8.81284 25.1844 9.36907 25.5279 9.71222L27.9747 12.1583C28.1462 12.3298 28.3711 12.4157 28.596 12.4157C28.8208 12.4157 29.0457 12.3299 29.2175 12.1583C29.5606 11.8151 29.5605 11.2588 29.2174 10.9157Z" fill="white"/>
<path d="M48.9247 30.6175L46.4779 28.1715C46.1347 27.8283 45.5784 27.8283 45.2349 28.1715C44.8917 28.5146 44.8917 29.0707 45.2349 29.4138L47.6817 31.8599C47.8534 32.0315 48.0783 32.1172 48.3033 32.1172C48.5282 32.1172 48.753 32.0315 48.9247 31.8599C49.268 31.5168 49.268 30.9606 48.9247 30.6175Z" fill="white"/>
<path d="M60.2572 48.75L60.5013 46.971L60.6124 46.161L65.475 46.8277C65.9558 46.8938 66.3991 46.5576 66.4651 46.0768C66.531 45.5959 66.1947 45.1529 65.7138 45.087L60.8512 44.4203L61.4532 40.0332L66.3156 40.6999C66.7964 40.7659 67.2398 40.4297 67.3058 39.949C67.3718 39.468 67.0354 39.0252 66.5546 38.9591L61.692 38.2924L61.8031 37.4825L62.0472 35.7034C62.1132 35.2226 61.7768 34.7796 61.296 34.7137C60.8152 34.6477 60.3718 34.9839 60.3059 35.4647L60.1813 36.3734L55.8807 35.7836C53.08 35.3996 50.4692 37.1405 49.6814 39.767L41.9402 38.7057C39.4062 38.3582 37.6273 36.0145 37.9749 33.4813L38.2559 31.4336C38.3218 30.9528 37.9855 30.5098 37.5046 30.4438C37.0237 30.3779 36.5806 30.714 36.5145 31.1949L36.2337 33.2426C35.7544 36.7357 38.2071 39.9671 41.7012 40.4463L49.4425 41.5078C49.4939 44.2492 51.5393 46.6287 54.34 47.0127L58.6405 47.6024L58.5158 48.511C58.4499 48.9918 58.7862 49.4348 59.2671 49.5008C59.7481 49.5669 60.1913 49.2307 60.2572 48.75ZM54.579 45.2721C52.4423 44.9791 50.9426 43.0029 51.2356 40.8671C51.5286 38.7312 53.5053 37.2316 55.6419 37.5247L59.9425 38.1143L58.8796 45.8619L54.579 45.2723V45.2721Z" fill="white"/>
<path d="M104.288 3.13551C104.773 3.13551 105.167 2.74217 105.167 2.25697C105.167 1.77175 104.773 1.37842 104.288 1.37842C103.803 1.37842 103.409 1.77175 103.409 2.25697C103.409 2.74217 103.803 3.13551 104.288 3.13551Z" fill="white"/>
<path d="M100.152 3.13551C100.637 3.13551 101.03 2.74217 101.03 2.25697C101.03 1.77175 100.637 1.37842 100.152 1.37842C99.6662 1.37842 99.2727 1.77175 99.2727 2.25697C99.2727 2.74217 99.6662 3.13551 100.152 3.13551Z" fill="white"/>
</svg>
